<svg xmlns="http://www.w3.org/2000/svg" version="1.1" xmlns:xlink="http://www.w3.org/1999/xlink" xmlns:svgjs="http://svgjs.dev/svgjs" viewBox="0 0 800 800"><defs><linearGradient x1="50%" y1="0%" x2="50%" y2="100%" id="ssscribble-grad"><stop stop-color="hsl(265, 55%, 30%)" stop-opacity="1" offset="0%"></stop><stop stop-color="hsl(265, 55%, 60%)" stop-opacity="1" offset="100%"></stop></linearGradient></defs><g fill="none" stroke-width="1.5" stroke="url(#ssscribble-grad)" stroke-linecap="round"><path d="M1102.98 403.68C1058.98 436.54 941.57 492.94 799.42 569.09 681.22 642.2 624.32 724.98 637.28 798.67 711.37 840.55 811.45 838.24 902.52 775.53 967.55 680.33 983.56 572.75 953.07 514.04 884.54 558.46 792.45 707.5 694.58 904.12 593.53 1031.69 505.17 1011.03 433.07 845.47 369.42 674.49 319.31 641.91 278.54 801.46 241.12 1020.59 207.05 1099.56 174.19 951.01 141.32 725.76 111.24 649.63 86.68 781.29 65.48 991.07 55.81 1077.61 62.52 974.73 77.67 764.84 111.91 604.78 162.31 585.1 209.54 697.67 254.45 846.74 279.91 938.44 267.33 936.58 212.36 841.59 113.11 704.72 -12.17 556.39 -141.72 442.26 -239.9 370.22 -276.94 330.24 -238.74 314.79 -133.22 304.65 -3.76 302.49 106.98 288.35 150.98 255.49 103.97 222.63 -8.54 172.62 -137.99 112.81 -241.78 60.97 -277.28 16.63 -237.55 -0.34 -137.4 14.73 -7.19 74.74 117.46 172.42 215.04 258.65 267.85 306.48 278.35 265.3 251.1 130.54 205.06 -57.48 157.37 -204.28 90.19 -153.56 58.28 123.74 85.29 -151.3 110.45 -295.68 140.86 -226.27 173.72 -1.04 206.58 147.56 240.34 75.3 277.15 -131.13 317.34 -278.03 366.66 -226.79 429.42 -31.74 500.83 157.92 588.68 208.08 689.64 114.75 787.97 -47.65 881.19 -157.74 951.51 -159.12 984.08 -57.35 970.23 97.38 906.87 243.23 816.42 356.6 715.69 413.05 639.62 428.13 623.98 411.39 678.18 388.39 794.66 377.26 936.79 363.06 1055.97 370.83 1102.98 403.68Q1102.98 403.68 1102.98 403.68" opacity="0.37"></path><path d="M1068.98 603.61C1030.96 634.13 927.17 672.9 795.77 712.87 675.92 744.78 601.42 762.32 585.77 750.97 628.33 716.59 706.93 647.59 794.17 557.34 875.64 490.15 925.09 466.06 936.41 522.26 913.76 654.93 860.41 830.09 789.59 970.45 705.05 998.98 620.85 896.09 544.73 719.57 469.93 603.05 407 636.5 356.15 817.43 307.06 1010.85 267.41 1061.95 236.9 917.01 196.42 658.56 175.01 965.35 200.65 1006.4 223.88 845.01 257.84 655.49 295.34 544.93 319.13 555.84 328.67 660.08 311.34 783.98 260.02 879.17 174.39 897.57 61.15 847.35 -57.85 745.69 -163.82 627.12 -228.74 519.35 -235.46 418.36 -178.33 343.59 -70.25 290.48 49.36 244.51 146.96 208.77 184.98 178.26 144.14 147.75 44.73 123.9 -75.18 112.31 -182.02 107.87 -236.88 127.13 -227.6 175.23 -160.43 230.11 -53.14 298.45 66.08 353.09 178.51 356.3 262.61 294.11 312.1 158.94 327.5 -4.94 316.35 -145.37 291.43 -188.09 253.17 -109.32 218.92 52.82 195.71 191.86 174.05 194.62 166.99 45 173.99 -162.07 182.82 -265.74 202.96 -178.96 233.47 32.95 263.98 177.94 303.43 133.08 352.15 -48.54 402.69 -217.72 465.26 -233.84 539.8 -94.98 615.89 103.9 700.39 234.18 785.68 237.45 857.63 128.88 912.58 -10.1 937.18 -102.78 927.67 -119.02 879.76 -51.13 799.1 63.06 711.64 200.33 631.72 319.6 586.91 406.87 600.01 471.1 672.23 509.08 790.85 534.71 922.54 552.3 1028.14 573.11 1068.98 603.61Q1068.98 603.61 1068.98 603.61" opacity="0.31"></path><path d="M1034.98 582.19C1002.55 610.36 912.03 624.64 792.79 622.18 675.37 615.42 588.94 586.25 549.1 535.57 560.23 487.44 610.93 436.92 682.05 408.43 763.2 428.19 829.75 505 870.93 639.28 888.48 790.5 876.51 918.15 842.15 962.46 790.22 901.29 728.77 757.41 666.37 609.43 599.59 559.43 539.13 647.25 488.47 834.13 437.74 997.25 397.61 1023.08 369.45 883.01 341.28 685.15 326.41 579.55 324.02 632.81 348.02 854.23 362.63 504.29 293.94 588.68 215.83 701.75 115.89 792.34 5.41 835.47 -95.02 833.07 -170.99 786.46 -202.76 717.85 -183.57 631.76 -113.17 550.47 -6.62 484.35 101.74 418.16 186.55 370.23 218.98 342.05 183.92 313.89 97.3 306.81 -11.62 319.87 -151.69 347.9 -129.96 420.13 10.24 379.25 120.77 292.72 219.98 161.7 296.85 11.72 349.7 -103.92 376.55 -148.68 384.21 -91.17 366.46 110.26 321.31 99.08 319.05 -166.56 321.45 -230.73 336.36 -130.88 364.52 66.95 392.69 207.07 432.79 187 483.5 34.77 534.2 -141.25 594.81 -213.07 661.97 -142.45 724.92 26.16 787.26 195.31 840.44 285.82 876.19 270.85 889.78 176.6 873.85 62.3 833.9 -35.06 768.09 -71.44 686.88 -47.79 614.85 24.1 562.4 121 548.96 217.94 586.52 317.44 671.15 397.84 787.79 457.72 907.6 513.31 999.92 554.03 1034.98 582.19Q1034.98 582.19 1034.98 582.19" opacity="0.20"></path><path d="M1000.98 362.7C973.72 388.52 896.02 394.99 789.94 384.85 678.59 377.05 585.95 359.12 527.62 341.93 510.38 343.57 530.92 367.72 577.63 429.03 644.24 523.66 710.87 650.08 765.65 784.46 809.39 883.97 830.67 921.76 830.96 872.79 815.92 759.08 786.27 620.64 748.69 529.15 704.13 545.09 659.09 670.5 618.22 849.18 575.99 979.37 540.9 982.97 515.08 849.01 489.26 665.94 473.93 552.09 467.47 569.82 459.65 702.7 457.72 862.09 457.53 957.59 450.37 946.89 437.5 835.64 412.74 681.72 372.67 539.1 314.32 459.15 236.73 450.45 148.11 503.93 50.87 585.87 -42.62 663.6 -116.2 731.25 -159.9 764.79 -161.59 767.29 -122.19 749.29 -44.24 714.73 57.13 675.97 153.25 632.04 225.72 594.64 252.98 568.82 223.29 543 149.04 529.98 52.15 525.21 -48.88 515.28 -125.51 502.88 -163.01 476.14 -159.15 428.91 -113.52 352.85 -38.54 245.42 55.74 127.9 153.05 8.89 241.17 -78.44 317.77 -103.6 374.91 -54.29 413.74 61.43 437.18 188.47 448.94 276.58 455.24 268.38 454.65 153.98 456.04 -20.09 463.54 -162.94 469.71 -190.68 484.9 -82.1 510.72 100.94 536.54 234.95 571.77 236.62 614.29 116.43 655.48 -52.29 701.06 -163.03 746.4 -160.07 784.85 -49.66 815.61 111.92 831.96 252.53 832.92 328.39 812.85 321.21 770.09 255.55 715.81 155.01 649.11 65.66 581.71 10.82 533.61 -10.69 511.13 7.67 526.2 50.77 582.63 112.7 673.95 177.61 784.96 234.1 891.81 292.93 971.29 336.88 1000.98 362.7Q1000.98 362.7 1000.98 362.7" opacity="0.38"></path><path d="M966.98 183.75C944.46 207.22 878.95 225.48 786.63 242.36 684.38 264.05 591 293.55 520.65 339.16 480.53 399.55 472.63 483.43 491.42 588.58 533.92 693.97 586.36 793.52 638.31 861 690.45 875.28 729.76 827.6 753.69 723.85 768.28 606.22 768.15 511.1 756.74 487.56 738.96 557.74 715.15 701.49 689.16 860.21 661.43 956.85 634.89 941.68 611.42 815.02 587.94 647.37 568.65 529.54 552.12 516.41 533.84 609.12 514.95 752.35 492.06 874.64 462.79 929.93 424.26 893.41 373.5 788.32 313.39 648.02 240.39 520.38 157.48 434.59 74.76 398.45 -5.5 410.02 -72.44 449.66 -115.67 510.84 -128.82 567.81 -105.9 608.94 -52.75 644.21 27.25 659.26 120.44 657.45 203.71 651.62 264.46 635.54 286.98 612.07 262.27 588.59 199.82 558.85 115.64 520.41 22.42 477.95 -56.76 420.2 -108.47 344.26 -129.55 262.45 -114.53 166.83 -69.71 69.47 -1.5 -6.34 79.48 -51.61 162.42 -46.23 245.1 8.78 317.53 108.6 376.88 224.46 426.69 305.11 464.29 320.57 492.75 248.08 514.82 108.58 533.06 -47.99 550.91 -149.76 567.02 -145.69 586.1 -32.62 609.57 135.02 633.04 261.68 659.8 281.6 687.95 194.03 726.6 -20.83 770.19 -40.17 757.09 159.98 733.92 288.17 695.19 363.67 643.27 380.17 591.1 343.45 537.93 277.59 494.16 208.38 473.77 139.4 479.79 94.18 518.07 74.47 586.98 69.54 679.52 82.74 781.79 105.31 875.03 132.69 942.25 160.27 966.98 183.74Q966.98 183.75 966.98 183.75" opacity="0.46"></path><path d="M932.98 239.75C914.97 260.87 861.09 292.98 782.83 336.68 692.07 382.53 602.81 442.98 526.94 517.34 470.82 591.8 439.34 672.97 431.26 749.19 445.66 803.21 474.78 828.48 510.99 811.26 554.91 755.79 595.13 664.75 627.22 559.51 656.7 479.63 675.02 447.47 682.43 486.38 686.09 591.48 681.01 734.65 669.11 864.94 655.89 929.3 638.23 899.11 617.11 780.91 595.99 629.2 572.39 511.52 545.77 473.43 517.83 525.57 484.48 638.56 444.22 762.61 400.19 859.3 347.09 891.27 285.05 856.04 220.4 766.26 149.86 649.78 78.24 536.34 14.35 438.57 -39.81 374.84 -76.21 343.98 -90.12 341.39 -77.59 357.23 -36.96 378.68 23.42 408.83 100.66 431.34 183.27 440.88 253.37 450.78 302.97 445.78 320.98 424.65 300.59 403.54 249.06 367.29 177.74 317.56 94.75 268.19 17.99 207.25 -41.22 140.48 -80.15 82.43 -90.75 31.78 -74.96 1.8 -36.82 0.09 18.7 33.48 83.5 103.55 155.64 189.3 226.29 280.74 290.74 348.54 352.33 361.8 404.83 310.9 448.25 198.74 487.82 59.21 520.58 -65.8 548.09 -126.13 574.27 -96.22 597.63 17.14 618.75 168.84 639.87 287.07 657.76 321.59 671.43 265.4 683.75 143.28 689.43 12.12 686.47 -77.5 679.66 -100.95 661.94 -49.85 632.92 52.01 601.03 179.26 560.7 295.35 516.25 378.51 463.89 425.95 453.49 340.16 522.68 279.12 597.38 241.37 686.17 219.36 777.31 213.34 856.78 209.48 912.59 218.62 932.98 239.75Q932.98 239.75 932.98 239.75" opacity="0.31"></path><path d="M898.97 470.12C884.65 488.9 841.22 520.34 776.64 562.1 698.91 602.41 617.91 649.49 542.91 697.32 478.79 735.74 431.33 763.99 401.83 772.48 390.21 759.23 393.61 718.24 407.41 650.19 431.93 573.14 459.22 492.5 484.82 429.68 512.89 408.77 534.85 437.93 548.95 520.51 562.27 638.12 567.29 764.73 563.98 861.85 560.13 896.94 548.82 855.62 530.04 746.95 511.27 611.62 485.9 497.98 454.34 441.66 422.24 456.71 383.06 531.64 337.2 636.37 290.55 744.93 237.67 821.38 180.66 850.22 126.12 830.98 71.87 769.42 22.74 683.94 -15.66 584.22 -41.32 490.71 -49.26 413.62 -39.31 350.18 -8.69 307.23 41.66 280.14 102.89 264.13 173.21 254.9 243.69 246.21 301.02 240.37 340.65 229.35 354.97 210.58 338.87 191.8 297.74 166.15 239.35 136.58 168.33 109.85 98.04 84.92 37.34 68.39 -12.04 62.94 -41.43 74.96 -50.04 109.46 -40.71 157.61 -13.79 224.16 25.65 299.28 75.65 360.14 130.49 399.44 185.39 399.12 242.58 350.73 295.47 257.44 342.03 135.12 387.71 16.63 426.69 -68.98 458.64 -91.28 490.01 -42.21 515.27 67.62 534.05 202.95 552.83 311.62 564.24 356.74 568.29 328.9 571.75 239.03 566.94 123.1 553.8 19.26 539.79 -49.55 517.82 -61.87 489.57 -21.41 463.61 60.96 435.72 163.85 410.33 265.52 395.49 358.18 390.83 426.12 401.04 468.31 429.2 488.76 475.42 491.44 538.57 485.56 613.02 470.28 694 457.35 772.27 452.46 837.91 446.11 882.86 451.33 898.97 470.11Q898.97 470.12 898.97 470.12" opacity="0.97"></path><path d="M864.97 624.09C820.96 656.95 703.51 690.81 566.5 697.68 445.51 673.99 371.34 586.68 343.74 455.92 355.57 377.23 381.99 404.74 399.35 577.88 421.88 783.57 419.97 861.55 387.11 712.94 354.25 487.71 293.54 407.32 214.06 512.49 139.76 701.61 62.06 805.65 7.15 779.1 -8.3 654.84 31 506.17 127.9 393 240.83 294.69 344.96 235.08 388.97 202.22 341.96 169.36 236.08 166.35 123.06 207.72 27.54 263.94 -9.6 361.33 7.94 442.52 64.8 426 143.75 287.1 218.65 73.9 298.47 -55.35 359.25 11.71 392.11 236.94 424.98 385.55 426.81 320.89 403.93 139.28 385.98 -9.76 358.31 -2.41 344.52 119.33 370.04 293.16 442.05 431.77 561.65 512.4 698.76 562.48 817.96 591.23 864.97 624.09Q864.97 624.09 864.97 624.09" opacity="0.60"></path><path d="M830.98 534.52C798.53 562.69 707.76 553.76 593.57 505.93 478.12 455.18 387.05 379.94 329.06 325.93 298.95 347.07 289.11 460.16 283.91 642.66 286.69 792.97 277.93 819.08 249.76 679.02 221.6 481.16 176.69 373.3 125.1 407.79 81.49 548.3 47.36 686.99 40.56 753.68 61.63 748.28 122.83 680.13 217.63 599.31 311.18 505.31 390.53 437.1 422.98 408.94 387.94 380.77 306.83 395.31 212.69 440.5 118.41 472.5 58.55 496.7 39.04 465.18 47.6 361.58 83.14 193.03 127.65 31.87 180.03 -23.28 225.31 73.11 253.48 270.95 281.66 411.06 290.04 396.4 286.47 266.75 290.77 104.88 299.19 21.65 327.53 37.43 383.95 128.35 473.68 247.55 588.6 347.11 703.39 443.76 795.92 506.35 830.98 534.51Q830.98 534.52 830.98 534.52" opacity="0.67"></path><path d="M796.98 298.72C774.46 322.19 708.5 314.68 620.29 289.28 522.08 277.41 432.03 277.82 361.31 320.77 304.94 411.82 266.54 551.26 239.91 697.65 219.7 785.49 200.17 771.67 176.7 645.02 140.63 418.09 94.41 458.77 120.9 608.44 160.85 681.99 226.01 705.04 307.01 693.16 378.02 663.91 434.46 629.36 456.98 605.89 432.27 582.42 374.15 572.25 302.25 560.82 221.1 532.03 156.48 472.34 117.41 368.04 92.68 175.16 141.33 82.82 177.63 304.95 201.1 431.64 220.18 455.01 239.56 384.39 265.37 255.2 302.64 140.65 357.81 80.35 427.63 68.16 517.16 104.38 615.51 156.93 704.62 223.01 772.25 275.24 796.98 298.71Q796.98 298.72 796.98 298.72" opacity="0.76"></path><path d="M762.98 172.96C748.73 191.74 704.76 211.01 642.92 238.37 569.2 276.25 494.47 338.55 428.43 429.59 366.31 530.98 316.22 641.3 278.77 727.26 244.5 758.84 218.14 719.61 199.36 610.97 180.58 475.63 171.16 362.19 172.9 302.78 177.8 303.26 198.59 349.89 236.09 412.72 277.52 488.51 332.34 545.27 392.29 574.22 440.37 597.21 476.73 597.75 490.98 578.97 474.8 560.2 436.84 523.87 387.67 468.34 327.1 406.86 272.17 320.79 230.99 220.38 194.03 132.94 173.87 66.4 169.5 52.15 168.36 97.8 178.12 203.63 196.9 338.97 215.68 447.61 241.7 494.45 275.38 476.64 312.29 404.44 361.76 314.04 423.33 237.26 489.11 170.83 563.96 137.83 638.29 132.49 701.23 137.68 746.8 154.18 762.98 172.96Q762.98 172.96 762.98 172.96" opacity="0.84"></path><path d="M728.98 294.05C696.53 322.21 605.21 427.1 509.95 576.57 409.79 690.09 335.94 717.08 307.77 577.02 279.6 379.14 302.45 267.1 365.7 264.76 424.05 333.78 492.53 385.71 524.98 357.54 489.94 329.37 419.75 226.45 360.82 120.51 297.62 85.93 275.13 175.14 303.3 373.02 331.46 513.08 404.96 508.93 505.07 432.32 600.92 319.76 693.94 265.88 728.98 294.05Q728.98 294.05 728.98 294.05" opacity="0.86"></path><path d="M694.98 530.25C637.84 567.81 493.38 694.93 455.83 543.01 418.27 293.79 501.84 219.76 558.98 182.2 498.5 144.65 413.39 157.79 450.95 407.01 488.5 558.93 634.5 492.7 694.98 530.25Q694.98 530.25 694.98 530.25" opacity="0.28"></path></g></svg>